<?xml version="1.0" encoding="UTF-8"?>
<svg width="160px" height="29px" viewBox="0 0 160 29" version="1.1" xmlns="http://www.w3.org/2000/svg" xmlns:xlink="http://www.w3.org/1999/xlink">
    <!-- Generator: Sketch 52.1 (67048) - http://www.bohemiancoding.com/sketch -->
    <title>logoDustproof_denim</title>
    <desc>Created with Sketch.</desc>
    <g id="Website" stroke="none" stroke-width="1" fill="none" fill-rule="evenodd">
        <g id="Nav-Bar-Copy" transform="translate(-640.000000, -30.000000)" fill="#10141D">
            <path d="M681.458677,45.013211 C681.458677,45.8194255 681.737215,46.4978153 682.294301,47.0484007 C682.851386,47.5989862 683.530629,47.8742748 684.332051,47.8742748 C685.133472,47.8742748 685.807828,47.5989862 686.35514,47.0484007 C686.902452,46.4978153 687.176104,45.8194255 687.176104,45.013211 C687.176104,44.2069966 686.902452,43.5286068 686.35514,42.9780213 C685.807828,42.4274358 685.133472,42.1521472 684.332051,42.1521472 C683.530629,42.1521472 682.851386,42.4274358 682.294301,42.9780213 C681.737215,43.5286068 681.458677,44.2069966 681.458677,45.013211 Z M692.395089,31.4157841 L692.395089,52.6525463 L687.293385,52.6525463 L687.293385,51.0597891 L687.234744,51.0597891 C686.902448,51.5710471 686.408897,52.0233069 685.754077,52.4165823 C685.099258,52.8098576 684.273415,53.0064923 683.276526,53.0064923 C682.357823,53.0064923 681.478228,52.8196893 680.637713,52.4460778 C679.797198,52.0724662 679.054429,51.5464683 678.409382,50.8680684 C677.764336,50.1896684 677.261012,49.3932978 676.899395,48.4789326 C676.537778,47.5645675 676.356973,46.576478 676.356973,45.5146346 C676.356973,42.8993536 677.041102,40.8297731 678.409382,39.3058312 C679.777662,37.7818893 681.575946,37.0199297 683.804288,37.0199297 C684.644803,37.0199297 685.363139,37.1526581 685.959318,37.418119 C686.555497,37.6835799 687.000182,37.9637843 687.293385,38.2587408 L687.293385,31.4157841 L692.395089,31.4157841 Z M708.140004,37.3738757 L708.140004,52.6525463 L703.038299,52.6525463 L703.038299,51.2367621 C702.510534,51.8070114 701.943684,52.2445236 701.337731,52.549312 C700.731779,52.8541004 700.057422,53.0064923 699.314642,53.0064923 C698.747783,53.0064923 698.205366,52.9278384 697.687374,52.7705283 C697.169382,52.6132182 696.700265,52.357593 696.280007,52.0036452 C695.85975,51.6496974 695.527458,51.1876058 695.283123,50.6173566 C695.038787,50.0471073 694.916621,49.3785493 694.916621,48.6116624 L694.916621,37.3738757 L700.018325,37.3738757 L700.018325,45.7505986 C700.018325,46.3798391 700.125831,46.8910894 700.340847,47.2843647 C700.555862,47.6776401 700.96634,47.8742748 701.572292,47.8742748 C702.139151,47.8742748 702.525196,47.6727242 702.730438,47.269617 C702.93568,46.8665098 703.038299,46.3601754 703.038299,45.7505986 L703.038299,37.3738757 L708.140004,37.3738757 Z M710.221734,52.6525463 L710.221734,47.9037703 C710.397655,48.0020891 710.617554,48.0905748 710.881437,48.1692298 C711.145319,48.2478849 711.433631,48.2872119 711.746381,48.2872119 C712.117771,48.2872119 712.435403,48.2134738 712.699285,48.0659956 C712.963168,47.9185173 713.095107,47.6776398 713.095107,47.3433558 C713.095107,47.1270543 713.016921,46.9205879 712.860546,46.7239502 C712.704171,46.5273125 712.450066,46.2618557 712.098222,45.9275716 C711.433629,45.2983311 710.910759,44.6740158 710.529595,44.0546072 C710.148431,43.4351985 709.957852,42.633912 709.957852,41.6507237 C709.957852,40.0776223 710.42697,38.9125616 711.365219,38.1555066 C712.303468,37.3984515 713.583768,37.0199297 715.206157,37.0199297 C716.437609,37.0199297 717.424711,37.0592567 718.167491,37.1379117 L718.167491,41.9751742 C717.639726,41.6212264 717.063103,41.4442552 716.437603,41.4442552 C716.124853,41.4442552 715.856088,41.5376567 715.631299,41.7244624 C715.40651,41.9112682 715.294118,42.1619775 715.294118,42.4765978 C715.294118,42.6535717 715.372304,42.8452905 715.528679,43.0517601 C715.685054,43.2582296 715.939159,43.5286024 716.291002,43.8628864 C716.994689,44.570782 717.556653,45.2590035 717.97691,45.9275716 C718.397168,46.5961397 718.607293,47.4220055 718.607293,48.4051939 C718.607293,49.8996402 718.143062,51.0401215 717.214587,51.8266722 C716.286111,52.6132229 714.883645,53.0064923 713.007147,53.0064923 C712.67485,53.0064923 712.303465,52.9868289 711.892981,52.9475013 C711.482497,52.9081738 710.92542,52.8098564 710.221734,52.6525463 Z M720.894264,37.3738757 L720.894264,35.4861636 L725.995968,32.5366133 L725.995968,37.3738757 L727.872457,37.3738757 L727.872457,41.7982012 L725.995968,41.7982012 L725.995968,45.9865626 C725.995968,46.4781568 726.079041,46.8566786 726.24519,47.1221395 C726.411338,47.3876003 726.826702,47.5203288 727.491296,47.5203288 C727.764952,47.5203288 728.009284,47.4810018 728.224299,47.4023468 L728.253619,47.4023468 L727.491296,52.6525463 C726.142562,52.6525463 725.111481,52.627967 724.398021,52.5788075 C723.684561,52.5296481 723.059071,52.3870879 722.521532,52.1511227 C721.983993,51.9151575 721.578402,51.5317198 721.304746,51.0007981 C721.03109,50.4698764 720.894264,49.7324962 720.894264,48.7886354 L720.894264,41.7982012 L719.838739,41.7982012 L719.838739,37.3738757 L720.894264,37.3738757 Z M730.188748,57.6077908 L730.188748,37.3738757 L735.290453,37.3738757 L735.290453,38.9666329 L735.349093,38.9666329 C735.681389,38.455375 736.17494,38.0031151 736.82976,37.6098398 C737.48458,37.2165644 738.310422,37.0199297 739.307312,37.0199297 C740.226014,37.0199297 741.105609,37.2018168 741.946124,37.5655965 C742.786639,37.9293762 743.529409,38.4553741 744.174455,39.1436059 C744.819501,39.8318378 745.322825,40.6331243 745.684442,41.5474894 C746.046059,42.4618546 746.226865,43.4499441 746.226865,44.5117875 C746.226865,47.1270685 745.547621,49.1966489 744.189115,50.7205908 C742.830608,52.2445328 741.027438,53.0064923 738.779549,53.0064923 C737.939034,53.0064923 737.220698,52.8737639 736.624519,52.608303 C736.02834,52.3428422 735.583655,52.0626377 735.290453,51.7676812 L735.290453,57.6077908 L730.188748,57.6077908 Z M741.12516,45.013211 C741.12516,44.2069966 740.846622,43.5286068 740.289536,42.9780213 C739.732451,42.4274358 739.053208,42.1521472 738.251787,42.1521472 C737.450366,42.1521472 736.776009,42.4274358 736.228697,42.9780213 C735.681385,43.5286068 735.407733,44.2069966 735.407733,45.013211 C735.407733,45.8194255 735.681385,46.4978153 736.228697,47.0484007 C736.776009,47.5989862 737.450366,47.8742748 738.251787,47.8742748 C739.053208,47.8742748 739.732451,47.5989862 740.289536,47.0484007 C740.846622,46.4978153 741.12516,45.8194255 741.12516,45.013211 Z M748.103353,52.6525463 L748.103353,37.3738757 L753.205058,37.3738757 L753.205058,38.9076419 L753.263698,38.9076419 C753.576448,38.3177289 753.977152,37.9146277 754.465824,37.6983263 C754.954495,37.4820248 755.648398,37.3738757 756.547554,37.3738757 L756.547554,42.5060933 C755.218367,42.5060933 754.328999,42.7223915 753.879421,43.1549943 C753.429843,43.5875972 753.205058,44.2856505 753.205058,45.249175 L753.205058,52.6525463 L748.103353,52.6525463 Z M757.632399,45.013211 C757.632399,43.9120401 757.837638,42.8747919 758.248122,41.9014355 C758.658606,40.928079 759.230343,40.0776338 759.96335,39.3500744 C760.696357,38.6225151 761.546633,38.0522744 762.514202,37.6393353 C763.481771,37.2263962 764.503079,37.0199297 765.578156,37.0199297 C766.672781,37.0199297 767.703862,37.2263962 768.671431,37.6393353 C769.639001,38.0522744 770.48439,38.6225151 771.207623,39.3500744 C771.930857,40.0776338 772.497707,40.928079 772.908191,41.9014355 C773.318675,42.8747919 773.523914,43.9120401 773.523914,45.013211 C773.523914,46.0947182 773.318675,47.1221346 772.908191,48.0954911 C772.497707,49.0688475 771.930857,49.9242086 771.207623,50.6615998 C770.48439,51.3989911 769.639001,51.9741477 768.671431,52.3870868 C767.703862,52.8000259 766.672781,53.0064923 765.578156,53.0064923 C764.503079,53.0064923 763.481771,52.8000259 762.514202,52.3870868 C761.546633,51.9741477 760.696357,51.3989911 759.96335,50.6615998 C759.230343,49.9242086 758.658606,49.0688475 758.248122,48.0954911 C757.837638,47.1221346 757.632399,46.0947182 757.632399,45.013211 Z M762.734103,45.013211 C762.734103,45.8194255 763.007755,46.4978153 763.555067,47.0484007 C764.102379,47.5989862 764.776735,47.8742748 765.578156,47.8742748 C766.379578,47.8742748 767.053934,47.5989862 767.601246,47.0484007 C768.148558,46.4978153 768.42221,45.8194255 768.42221,45.013211 C768.42221,44.2069966 768.148558,43.5286068 767.601246,42.9780213 C767.053934,42.4274358 766.379578,42.1521472 765.578156,42.1521472 C764.776735,42.1521472 764.102379,42.4274358 763.555067,42.9780213 C763.007755,43.5286068 762.734103,44.2069966 762.734103,45.013211 Z M774.462159,45.013211 C774.462159,43.9120401 774.667398,42.8747919 775.077882,41.9014355 C775.488366,40.928079 776.060103,40.0776338 776.79311,39.3500744 C777.526117,38.6225151 778.376392,38.0522744 779.343962,37.6393353 C780.311531,37.2263962 781.332839,37.0199297 782.407916,37.0199297 C783.50254,37.0199297 784.533622,37.2263962 785.501191,37.6393353 C786.468761,38.0522744 787.314149,38.6225151 788.037383,39.3500744 C788.760617,40.0776338 789.327467,40.928079 789.737951,41.9014355 C790.148435,42.8747919 790.353674,43.9120401 790.353674,45.013211 C790.353674,46.0947182 790.148435,47.1221346 789.737951,48.0954911 C789.327467,49.0688475 788.760617,49.9242086 788.037383,50.6615998 C787.314149,51.3989911 786.468761,51.9741477 785.501191,52.3870868 C784.533622,52.8000259 783.50254,53.0064923 782.407916,53.0064923 C781.332839,53.0064923 780.311531,52.8000259 779.343962,52.3870868 C778.376392,51.9741477 777.526117,51.3989911 776.79311,50.6615998 C776.060103,49.9242086 775.488366,49.0688475 775.077882,48.0954911 C774.667398,47.1221346 774.462159,46.0947182 774.462159,45.013211 Z M779.563863,45.013211 C779.563863,45.8194255 779.837515,46.4978153 780.384827,47.0484007 C780.932139,47.5989862 781.606495,47.8742748 782.407916,47.8742748 C783.209338,47.8742748 783.883694,47.5989862 784.431006,47.0484007 C784.978318,46.4978153 785.25197,45.8194255 785.25197,45.013211 C785.25197,44.2069966 784.978318,43.5286068 784.431006,42.9780213 C783.883694,42.4274358 783.209338,42.1521472 782.407916,42.1521472 C781.606495,42.1521472 780.932139,42.4274358 780.384827,42.9780213 C779.837515,43.5286068 779.563863,44.2069966 779.563863,45.013211 Z M791.438519,41.7982012 L791.438519,37.3738757 L792.699285,37.3738757 C792.718832,36.4496787 792.772585,35.6729716 792.860546,35.043731 C792.948507,34.4144905 793.173292,33.800007 793.534909,33.2002621 C793.896526,32.6005172 794.478036,32.1138462 795.279458,31.7402347 C796.080879,31.3666231 797.15594,31.1798201 798.504673,31.1798201 C798.973797,31.1798201 799.472235,31.2093153 800,31.2683066 L800,36.0760736 C799.061751,36.0760736 798.485127,36.135064 798.270112,36.2530466 C798.055096,36.3710292 797.898724,36.7446352 797.80099,37.3738757 L799.94136,37.3738757 L799.94136,41.7982012 L797.80099,41.7982012 L797.80099,52.6525463 L792.699285,52.6525463 L792.699285,41.7982012 L791.438519,41.7982012 Z M647.871804,31.9051795 C647.935113,31.8614147 648.000638,31.8198218 648.068413,31.7804579 C654.379036,28.1152267 662.448398,30.2903378 666.091838,36.6387044 C669.735277,42.9870711 667.573098,51.1046961 661.262475,54.7699273 C661.1947,54.8092912 661.126132,54.8455807 661.056801,54.8788527 C660.937071,54.9553894 660.815182,55.0297171 660.691156,55.1017517 L654.660559,58.6043427 C653.258199,59.4188385 651.465007,58.9354805 650.655354,57.5247323 L640.393305,39.6440339 C639.583652,38.2332858 640.064136,36.4293691 641.466497,35.6148733 L647.497093,32.1122823 C647.621119,32.0402477 647.746051,31.9712209 647.871804,31.9051795 Z M660.856493,42.1587985 C661.08694,41.9330457 661.168257,41.604811 661.068739,41.2985368 C660.968927,40.9919697 660.709711,40.773537 660.389726,40.7278594 L657.550377,40.3161753 C657.428842,40.2977285 657.324627,40.2224776 657.270611,40.113554 L656.001241,37.5471163 C655.858863,37.2587031 655.568822,37.0789207 655.246783,37.0789207 C654.92445,37.0789207 654.635583,37.2587031 654.49203,37.5471163 L653.22266,40.113554 C653.168645,40.2224776 653.06443,40.2986069 652.942894,40.3161753 L650.103545,40.7278594 C649.783561,40.773537 649.52317,40.9919697 649.423652,41.2985368 C649.325014,41.604811 649.406331,41.9342169 649.636779,42.1587985 L651.691725,44.1557302 C651.778914,44.2415221 651.819132,44.3639147 651.798289,44.483672 L651.313322,47.3045575 C651.271048,47.5528564 651.33622,47.7952991 651.496799,47.9847441 C651.74809,48.282527 652.184912,48.3730038 652.534547,48.1888293 L655.07358,46.8574439 C655.180144,46.8009325 655.313128,46.8021038 655.419692,46.8574439 L657.959899,48.1888293 C658.082609,48.2535393 658.214419,48.2872119 658.350926,48.2872119 C658.598694,48.2872119 658.834719,48.1774099 658.996473,47.9847441 C659.157052,47.7952991 659.222517,47.5528564 659.17995,47.3045575 L658.694983,44.483672 C658.67414,44.3639147 658.714358,44.2415221 658.801546,44.1557302 L660.856493,42.1587985 Z" id="logoDustproof_denim"></path>
        </g>
    </g>
</svg>